<?xml version="1.0" encoding="UTF-8"?>
<!DOCTYPE svg PUBLIC "-//W3C//DTD SVG 1.1//EN" "http://www.w3.org/Graphics/SVG/1.1/DTD/svg11.dtd">
<svg version="1.1" xmlns="http://www.w3.org/2000/svg" xmlns:xlink="http://www.w3.org/1999/xlink" x="0" y="0" width="768" height="768" viewBox="0, 0, 768, 768">
  <g id="Background">
    <rect x="0" y="0" width="768" height="768" fill="#000000" fill-opacity="0"/>
  </g>
  <g id="レイヤー_1">
    <g>
      <path d="M0,0 z M592,352 L560,352 C551.163,352 544,359.163 544,368 L544,400 C544,408.837 551.163,416 560,416 L592,416 C600.837,416 608,408.837 608,400 L608,368 C608,359.163 600.837,352 592,352 z M400,544 L368,544 C359.163,544 352,551.163 352,560 L352,592 C352,600.837 359.163,608 368,608 L400,608 C408.837,608 416,600.837 416,592 L416,560 C416,551.163 408.837,544 400,544 z M496,544 L464,544 C455.163,544 448,551.163 448,560 L448,592 C448,600.837 455.163,608 464,608 L496,608 C504.837,608 512,600.837 512,592 L512,560 C512,551.163 504.837,544 496,544 z M592,544 L560,544 C551.163,544 544,551.163 544,560 L544,592 C544,600.837 551.163,608 560,608 L592,608 C600.837,608 608,600.837 608,592 L608,560 C608,551.163 600.837,544 592,544 z M592,448 L560,448 C551.163,448 544,455.163 544,464 L544,496 C544,504.837 551.163,512 560,512 L592,512 C600.837,512 608,504.837 608,496 L608,464 C608,455.163 600.837,448 592,448 z M592,256 L560,256 C551.163,256 544,263.163 544,272 L544,304 C544,312.837 551.163,320 560,320 L592,320 C600.837,320 608,312.837 608,304 L608,272 C608,263.163 600.837,256 592,256 z M304,544 L272,544 C263.163,544 256,551.163 256,560 L256,592 C256,600.837 263.163,608 272,608 L304,608 C312.837,608 320,600.837 320,592 L320,560 C320,551.163 312.837,544 304,544 z M400,160 L368,160 C359.163,160 352,167.163 352,176 L352,208 C352,216.837 359.163,224 368,224 L400,224 C408.837,224 416,216.837 416,208 L416,176 C416,167.163 408.837,160 400,160 z M496,160 L464,160 C455.163,160 448,167.163 448,176 L448,208 C448,216.837 455.163,224 464,224 L496,224 C504.837,224 512,216.837 512,208 L512,176 C512,167.163 504.837,160 496,160 z M592,160 L560,160 C551.163,160 544,167.163 544,176 L544,208 C544,216.837 551.163,224 560,224 L592,224 C600.837,224 608,216.837 608,208 L608,176 C608,167.163 600.837,160 592,160 z M208,352 L176,352 C167.163,352 160,359.163 160,368 L160,400 C160,408.837 167.163,416 176,416 L208,416 C216.837,416 224,408.837 224,400 L224,368 C224,359.163 216.837,352 208,352 z M208,544 L176,544 C167.163,544 160,551.163 160,560 L160,592 C160,600.837 167.163,608 176,608 L208,608 C216.837,608 224,600.837 224,592 L224,560 C224,551.163 216.837,544 208,544 z M208,448 L176,448 C167.163,448 160,455.163 160,464 L160,496 C160,504.837 167.163,512 176,512 L208,512 C216.837,512 224,504.837 224,496 L224,464 C224,455.163 216.837,448 208,448 z M208,256 L176,256 C167.163,256 160,263.163 160,272 L160,304 C160,312.837 167.163,320 176,320 L208,320 C216.837,320 224,312.837 224,304 L224,272 C224,263.163 216.837,256 208,256 z M208,160 L176,160 C167.163,160 160,167.163 160,176 L160,208 C160,216.837 167.163,224 176,224 L208,224 C216.837,224 224,216.837 224,208 L224,176 C224,167.163 216.837,160 208,160 z M304,160 L272,160 C263.163,160 256,167.163 256,176 L256,208 C256,216.837 263.163,224 272,224 L304,224 C312.837,224 320,216.837 320,208 L320,176 C320,167.163 312.837,160 304,160 z" fill="#FFFFFF"/>
      <path d="M208,128 C220.425,128.004 230.558,132.452 240,140.243 C248.906,132.247 260.13,128.3 272,128 L304,128 C316.425,128.004 326.558,132.452 336,140.243 C344.906,132.247 356.13,128.3 368,128 L400,128 C412.425,128.004 422.558,132.452 432,140.243 C440.906,132.247 452.13,128.3 464,128 L496,128 C508.425,128.004 518.558,132.452 528,140.243 C536.906,132.247 548.13,128.3 560,128 L592,128 C618.51,128 640,149.49 640,176 L640,208 C639.996,220.425 635.548,230.558 627.757,240 C635.753,248.906 639.7,260.13 640,272 L640,304 C639.996,316.425 635.548,326.558 627.757,336 C635.753,344.906 639.7,356.13 640,368 L640,400 C639.996,412.425 635.548,422.558 627.757,432 C635.753,440.906 639.7,452.13 640,464 L640,496 C639.996,508.425 635.548,518.558 627.757,528 C635.753,536.906 639.7,548.13 640,560 L640,592 C640,618.51 618.51,640 592,640 L560,640 C547.575,639.996 537.442,635.548 528,627.757 C519.094,635.753 507.87,639.7 496,640 L464,640 C451.575,639.996 441.442,635.548 432,627.757 C423.094,635.753 411.87,639.7 400,640 L368,640 C355.575,639.996 345.442,635.548 336,627.757 C327.094,635.753 315.87,639.7 304,640 L272,640 C259.575,639.996 249.442,635.548 240,627.757 C231.094,635.753 219.87,639.7 208,640 L176,640 C149.49,640 128,618.51 128,592 L128,560 C128.004,547.576 132.452,537.442 140.243,528 C132.247,519.094 128.3,507.87 128,496 L128,464 C128.004,451.576 132.452,441.442 140.243,432 C132.247,423.094 128.3,411.87 128,400 L128,368 C128.004,355.575 132.452,345.442 140.243,336 C132.247,327.094 128.3,315.87 128,304 L128,272 C128.004,259.576 132.452,249.442 140.243,240 C132.247,231.094 128.3,219.87 128,208 L128,176 C128,149.49 149.49,128 176,128 L208,128 z M208,544 L176,544 C167.163,544 160,551.163 160,560 L160,592 C160,600.837 167.163,608 176,608 L208,608 C216.837,608 224,600.837 224,592 L224,560 C224,551.163 216.837,544 208,544 z M304,544 L272,544 C263.163,544 256,551.163 256,560 L256,592 C256,600.837 263.163,608 272,608 L304,608 C312.837,608 320,600.837 320,592 L320,560 C320,551.163 312.837,544 304,544 z M592,544 L560,544 C551.163,544 544,551.163 544,560 L544,592 C544,600.837 551.163,608 560,608 L592,608 C600.837,608 608,600.837 608,592 L608,560 C608,551.163 600.837,544 592,544 z M496,544 L464,544 C455.163,544 448,551.163 448,560 L448,592 C448,600.837 455.163,608 464,608 L496,608 C504.837,608 512,600.837 512,592 L512,560 C512,551.163 504.837,544 496,544 z M400,544 L368,544 C359.163,544 352,551.163 352,560 L352,592 C352,600.837 359.163,608 368,608 L400,608 C408.837,608 416,600.837 416,592 L416,560 C416,551.163 408.837,544 400,544 z M432,243.757 C423.094,251.753 411.87,255.7 400,256 L368,256 C355.575,255.996 345.442,251.548 336,243.757 C327.094,251.753 315.87,255.7 304,256 L272,256 C264.093,256.015 258.489,254.353 251.323,251.323 C254.5,257.804 255.819,264.835 256,272 L256,304 C255.996,316.425 251.548,326.558 243.757,336 C251.753,344.906 255.7,356.13 256,368 L256,400 C255.996,412.425 251.548,422.558 243.757,432 C251.753,440.906 255.7,452.13 256,464 L256,496 C256.015,503.907 254.353,509.511 251.323,516.677 C257.804,513.5 264.835,512.181 272,512 L304,512 C316.425,512.004 326.558,516.452 336,524.243 C344.906,516.247 356.13,512.3 368,512 L400,512 C412.425,512.004 422.558,516.452 432,524.243 C440.906,516.247 452.13,512.3 464,512 L496,512 C503.907,511.985 509.511,513.647 516.677,516.677 C513.5,510.196 512.181,503.165 512,496 L512,464 C512.004,451.576 516.452,441.442 524.243,432 C516.247,423.094 512.3,411.87 512,400 L512,368 C512.004,355.575 516.452,345.442 524.243,336 C516.247,327.094 512.3,315.87 512,304 L512,272 C511.985,264.093 513.647,258.489 516.677,251.323 C510.196,254.5 503.165,255.819 496,256 L464,256 C451.575,255.996 441.442,251.548 432,243.757 z M208,448 L176,448 C167.163,448 160,455.163 160,464 L160,496 C160,504.837 167.163,512 176,512 L208,512 C216.837,512 224,504.837 224,496 L224,464 C224,455.163 216.837,448 208,448 z M592,448 L560,448 C551.163,448 544,455.163 544,464 L544,496 C544,504.837 551.163,512 560,512 L592,512 C600.837,512 608,504.837 608,496 L608,464 C608,455.163 600.837,448 592,448 z M208,352 L176,352 C167.163,352 160,359.163 160,368 L160,400 C160,408.837 167.163,416 176,416 L208,416 C216.837,416 224,408.837 224,400 L224,368 C224,359.163 216.837,352 208,352 z M592,352 L560,352 C551.163,352 544,359.163 544,368 L544,400 C544,408.837 551.163,416 560,416 L592,416 C600.837,416 608,408.837 608,400 L608,368 C608,359.163 600.837,352 592,352 z M208,256 L176,256 C167.163,256 160,263.163 160,272 L160,304 C160,312.837 167.163,320 176,320 L208,320 C216.837,320 224,312.837 224,304 L224,272 C224,263.163 216.837,256 208,256 z M592,256 L560,256 C551.163,256 544,263.163 544,272 L544,304 C544,312.837 551.163,320 560,320 L592,320 C600.837,320 608,312.837 608,304 L608,272 C608,263.163 600.837,256 592,256 z M304,160 L272,160 C263.163,160 256,167.163 256,176 L256,208 C256,216.837 263.163,224 272,224 L304,224 C312.837,224 320,216.837 320,208 L320,176 C320,167.163 312.837,160 304,160 z M208,160 L176,160 C167.163,160 160,167.163 160,176 L160,208 C160,216.837 167.163,224 176,224 L208,224 C216.837,224 224,216.837 224,208 L224,176 C224,167.163 216.837,160 208,160 z M592,160 L560,160 C551.163,160 544,167.163 544,176 L544,208 C544,216.837 551.163,224 560,224 L592,224 C600.837,224 608,216.837 608,208 L608,176 C608,167.163 600.837,160 592,160 z M496,160 L464,160 C455.163,160 448,167.163 448,176 L448,208 C448,216.837 455.163,224 464,224 L496,224 C504.837,224 512,216.837 512,208 L512,176 C512,167.163 504.837,160 496,160 z M400,160 L368,160 C359.163,160 352,167.163 352,176 L352,208 C352,216.837 359.163,224 368,224 L400,224 C408.837,224 416,216.837 416,208 L416,176 C416,167.163 408.837,160 400,160 z" fill="#000000"/>
    </g>
  </g>
</svg>
