<?xml version="1.0" encoding="UTF-8"?>
<!DOCTYPE svg PUBLIC "-//W3C//DTD SVG 1.1//EN" "http://www.w3.org/Graphics/SVG/1.1/DTD/svg11.dtd">
<svg version="1.1" xmlns="http://www.w3.org/2000/svg" xmlns:xlink="http://www.w3.org/1999/xlink" x="0" y="0" width="768" height="768" viewBox="0, 0, 768, 768">
  <g id="Background">
    <rect x="0" y="0" width="768" height="768" fill="#000000" fill-opacity="0"/>
  </g>
  <g id="レイヤー_1">
    <g>
      <path d="M640,272 L640,560 C640,586.5 618.5,608 592,608 L176,608 C149.5,608 128,586.5 128,560 L128,272 C128,245.5 149.5,224 176,224 L264,224 L276.3,191.1 C283.3,172.4 301.2,160 321.2,160 L446.7,160 C466.7,160 484.6,172.4 491.6,191.1 L504,224 L592,224 C618.5,224 640,245.5 640,272 z M504,416 C504,349.8 450.2,296 384,296 C317.8,296 264,349.8 264,416 C264,482.2 317.8,536 384,536 C450.2,536 504,482.2 504,416 z M472,416 C472,464.5 432.5,504 384,504 C335.5,504 296,464.5 296,416 C296,367.5 335.5,328 384,328 C432.5,328 472,367.5 472,416 z" fill="#404040"/>
      <path d="M446.7,128 C480.039,128 509.888,148.676 521.544,179.814 L526.137,192 L592,192 C636.173,192 672,227.827 672,272 L672,560 C672,604.173 636.173,640 592,640 L176,640 C131.827,640 96,604.173 96,560 L96,272 C96,227.827 131.827,192 176,192 L241.8,192 L246.331,179.882 C258.012,148.676 287.861,128 321.2,128 L446.7,128 z M446.7,160 L321.2,160 C301.2,160 283.3,172.4 276.3,191.1 L264,224 L176,224 C149.5,224 128,245.5 128,272 L128,560 C128,586.5 149.5,608 176,608 L592,608 C618.5,608 640,586.5 640,560 L640,272 C640,245.5 618.5,224 592,224 L504,224 L491.6,191.1 C484.6,172.4 466.7,160 446.7,160 z M384,296 C450.2,296 504,349.8 504,416 C504,482.2 450.2,536 384,536 C317.8,536 264,482.2 264,416 C264,349.8 317.8,296 384,296 z M384,328 C335.5,328 296,367.5 296,416 C296,464.5 335.5,504 384,504 C432.5,504 472,464.5 472,416 C472,367.5 432.5,328 384,328 z" fill="#000000"/>
    </g>
  </g>
</svg>
