<?xml version="1.0" encoding="UTF-8"?>
<!DOCTYPE svg PUBLIC "-//W3C//DTD SVG 1.1//EN" "http://www.w3.org/Graphics/SVG/1.1/DTD/svg11.dtd">
<svg version="1.1" xmlns="http://www.w3.org/2000/svg" xmlns:xlink="http://www.w3.org/1999/xlink" x="0" y="0" width="768" height="768" viewBox="0, 0, 768, 768">
  <g id="Background">
    <rect x="0" y="0" width="768" height="768" fill="#000000" fill-opacity="0"/>
  </g>
  <g id="レイヤー_1">
    <g>
      <path d="M616.6,377.95 L520,341.75 L520,233.25 C520,218.25 510.7,204.85 496.6,199.55 L396.6,162.05 C388.5,158.95 379.5,158.95 371.3,162.05 L271.3,199.55 C257.2,204.85 247.9,218.25 247.9,233.25 L247.9,341.75 L151.3,377.95 C137.3,383.25 128,396.65 128,411.65 L128,521.75 C128,535.35 135.7,547.85 147.9,553.95 L247.9,603.95 C258,609.05 270,609.05 280.1,603.95 L384,551.95 L487.9,603.95 C498,609.05 510,609.05 520.1,603.95 L620.1,553.95 C632.3,547.85 640,535.35 640,521.75 L640,411.65 C640,396.65 630.7,383.25 616.6,377.95 z M486,342.55 L401,374.45 L401,306.25 L486,269.25 L486,342.55 z M282,231.85 L384,193.65 L486,231.85 L486,232.45 L384,273.85 L282,232.45 L282,231.85 z M366,522.95 L281,565.45 L281,486.35 L366,447.55 L366,522.95 z M366,410.95 L264,452.35 L162,410.95 L162,410.35 L264,372.15 L366,410.35 L366,410.95 z M606,522.95 L521,565.45 L521,486.35 L606,447.55 L606,522.95 z M606,410.95 L504,452.35 L402,410.95 L402,410.35 L504,372.15 L606,410.35 L606,410.95 z" fill="#808080"/>
      <path d="M384.425,127.715 C392.472,127.696 400.255,129.558 407.834,132.091 L407.836,132.087 L507.859,169.596 C534.42,179.58 552,204.902 552,233.25 L552,319.569 L627.829,347.985 L627.859,347.996 C654.42,357.98 672,383.302 672,411.65 L672,521.75 C672,547.48 657.443,571.055 634.411,582.572 L534.411,632.572 L534.409,632.568 C513.978,642.302 494.005,642.127 473.579,632.563 L473.578,632.566 L384,587.734 L294.422,632.566 L294.42,632.563 C273.992,642.297 254.016,642.132 233.591,632.568 L233.589,632.572 L133.589,582.572 C110.556,571.055 96,547.48 96,521.75 L96,411.65 C96,383.353 113.524,358.035 139.97,348.023 L140.071,347.985 L215.9,319.569 L215.9,233.25 C215.9,204.902 233.48,179.58 260.064,169.587 L359.984,132.117 C364.792,130.306 369.799,129.03 374.892,128.339 C376.912,128.065 378.953,127.974 380.983,127.792 L384.425,127.715 z M387.197,159.87 C381.013,159.42 377.061,160.165 371.3,162.05 L271.3,199.55 C257.2,204.85 247.9,218.25 247.9,233.25 L247.9,341.75 L151.3,377.95 C137.3,383.25 128,396.65 128,411.65 L128,521.75 C128,535.35 135.7,547.85 147.9,553.95 L247.9,603.95 C258,609.05 270,609.05 280.1,603.95 L384,551.95 L487.9,603.95 C498,609.05 510,609.05 520.1,603.95 L620.1,553.95 C632.3,547.85 640,535.35 640,521.75 L640,411.65 C640,396.65 630.7,383.25 616.6,377.95 L616.6,377.95 L520,341.75 L520,233.25 C520,218.25 510.7,204.85 496.6,199.55 L396.6,162.05 C391.488,160.36 394.586,161.228 387.197,159.87 z M606,447.55 L606,522.95 L521,565.45 L521,486.35 L606,447.55 z M574,497.333 L553,506.919 L553,513.673 L574,503.173 L574,497.333 z M366,447.55 L366,522.95 L281,565.45 L281,486.35 L366,447.55 z M334,497.333 L313,506.919 L313,513.673 L334,503.173 L334,497.333 z M504,372.15 L606,410.35 L606,410.95 L504,452.35 L402,410.95 L402,410.35 L504,372.15 z M504,406.32 L489.271,411.836 L504,417.815 L518.729,411.836 L504,406.32 z M264,372.15 L366,410.35 L366,410.95 L264,452.35 L162,410.95 L162,410.35 L264,372.15 z M264,406.32 L249.271,411.836 L264,417.815 L278.728,411.836 L264,406.32 z M486,269.25 L486,342.55 L401,374.45 L401,306.25 L486,269.25 z M454,318.08 L433,327.221 L433,328.261 L454,320.38 L454,318.08 z M384,193.65 L486,231.85 L486,232.45 L384,273.85 L282,232.45 L282,231.85 L384,193.65 z M384,227.82 L369.271,233.336 L384,239.314 L398.728,233.336 L384,227.82 z" fill="#000000"/>
    </g>
  </g>
</svg>
