<?xml version="1.0" encoding="UTF-8"?>
<!DOCTYPE svg PUBLIC "-//W3C//DTD SVG 1.1//EN" "http://www.w3.org/Graphics/SVG/1.1/DTD/svg11.dtd">
<svg version="1.1" xmlns="http://www.w3.org/2000/svg" xmlns:xlink="http://www.w3.org/1999/xlink" x="0" y="0" width="768" height="768" viewBox="0, 0, 768, 768">
  <g id="Background">
    <rect x="0" y="0" width="768" height="768" fill="#000000" fill-opacity="0"/>
  </g>
  <g id="レイヤー_1">
    <g>
      <path d="M688,576 L576,576 L576,178.8 C576,150.78 554.47,128 528,128 L239.99,128 C213.52,128 191.99,150.78 191.99,178.8 L191.99,576 L80,576 C71.16,576 64,583.16 64,592 L64,624 C64,632.84 71.16,640 80,640 L688,640 C696.84,640 704,632.84 704,624 L704,592 C704,583.16 696.84,576 688,576 z M479.99,416 C462.32,416 447.99,401.67 447.99,384 C447.99,366.33 462.32,352 479.99,352 C497.66,352 511.99,366.33 511.99,384 C512,401.67 497.67,416 479.99,416 z" fill="#BFBFBF"/>
      <path d="M528,96 C572.563,96 608,133.501 608,178.8 L608,544 L688,544 C714.513,544 736,565.487 736,592 L736,624 C736,650.513 714.513,672 688,672 L80,672 C53.487,672 32,650.513 32,624 L32,592 C32,565.487 53.487,544 80,544 L159.99,544 L159.99,178.8 C159.99,133.501 195.427,96 239.99,96 L528,96 z M528,128 L239.99,128 C213.52,128 191.99,150.78 191.99,178.8 L191.99,576 L80,576 C71.16,576 64,583.16 64,592 L64,624 C64,632.84 71.16,640 80,640 L688,640 C696.84,640 704,632.84 704,624 L704,592 C704,583.16 696.84,576 688,576 L576,576 L576,178.8 C576,150.78 554.47,128 528,128 z M479.99,352 C497.66,352 511.99,366.33 511.99,384 C512,401.67 497.67,416 479.99,416 C462.32,416 447.99,401.67 447.99,384 C447.99,366.33 462.32,352 479.99,352 z" fill="#000000"/>
    </g>
  </g>
</svg>
