<?xml version="1.0" encoding="UTF-8"?>
<!DOCTYPE svg PUBLIC "-//W3C//DTD SVG 1.1//EN" "http://www.w3.org/Graphics/SVG/1.1/DTD/svg11.dtd">
<svg version="1.1" xmlns="http://www.w3.org/2000/svg" xmlns:xlink="http://www.w3.org/1999/xlink" x="0" y="0" width="768" height="768" viewBox="0, 0, 768, 768">
  <g id="Background">
    <rect x="0" y="0" width="768" height="768" fill="#000000" fill-opacity="0"/>
  </g>
  <g id="レイヤー_1">
    <g>
      <path d="M688,578.115 L608,578.115 L608,243.565 C608,216.305 586.47,194.115 560,194.115 L448,194.115 L448,258.115 L544,258.115 L544,642.115 L688,642.115 C696.84,642.115 704,634.955 704,626.115 L704,594.115 C704,585.275 696.84,578.115 688,578.115 z M376.24,131.125 L184.24,180.865 C169.99,184.555 160,197.815 160,213.035 L160,578.115 L80,578.115 C71.16,578.115 64,585.275 64,594.115 L64,626.115 C64,634.955 71.16,642.115 80,642.115 L416,642.115 L416,163.295 C416,141.715 396.44,125.885 376.24,131.125 z M328,418.115 C314.75,418.115 304,403.785 304,386.115 C304,368.445 314.75,354.115 328,354.115 C341.25,354.115 352,368.445 352,386.115 C352,403.785 341.25,418.115 328,418.115 z" fill="#808080"/>
      <path d="M383.327,98.15 L387.057,98.155 C421.028,100.56 446.986,128.136 447.966,162.115 L560,162.115 C604.358,162.115 640,198.839 640,243.565 L640,546.115 L688,546.115 C714.513,546.115 736,567.602 736,594.115 L736,626.115 C736,652.628 714.513,674.115 688,674.115 L512,674.115 L512,290.115 L448,290.115 L448,674.115 L80,674.115 C53.487,674.115 32,652.628 32,626.115 L32,594.115 C32,567.602 53.487,546.115 80,546.115 L128,546.115 L128,213.035 C128,183.399 147.683,157.276 176.215,149.888 L368.215,100.148 L368.205,100.15 C372.727,99.12 374.21,98.662 379.603,98.258 L383.327,98.15 z M385.59,130.154 C382.423,129.939 379.312,130.427 376.24,131.125 L184.24,180.865 C169.99,184.555 160,197.815 160,213.035 L160,578.115 L80,578.115 C71.16,578.115 64,585.275 64,594.115 L64,626.115 C64,634.955 71.16,642.115 80,642.115 L416,642.115 L416,163.295 C415.599,145.073 403.566,132.127 385.59,130.154 z M328,354.115 C341.25,354.115 352,368.445 352,386.115 C352,403.785 341.25,418.115 328,418.115 C314.75,418.115 304,403.785 304,386.115 C304,368.445 314.75,354.115 328,354.115 z M560,194.115 L448,194.115 L448,258.115 L544,258.115 L544,642.115 L688,642.115 C696.84,642.115 704,634.955 704,626.115 L704,594.115 C704,585.275 696.84,578.115 688,578.115 L608,578.115 L608,243.565 C608,216.305 586.47,194.115 560,194.115 z" fill="#000000"/>
    </g>
  </g>
</svg>
