<?xml version="1.0" encoding="UTF-8"?>
<!DOCTYPE svg PUBLIC "-//W3C//DTD SVG 1.1//EN" "http://www.w3.org/Graphics/SVG/1.1/DTD/svg11.dtd">
<svg version="1.1" xmlns="http://www.w3.org/2000/svg" xmlns:xlink="http://www.w3.org/1999/xlink" x="0" y="0" width="768" height="768" viewBox="0, 0, 768, 768">
  <g id="Background">
    <rect x="0" y="0" width="768" height="768" fill="#000000" fill-opacity="0"/>
  </g>
  <g id="レイヤー_1">
    <g>
      <path d="M625.942,404.285 C644.687,385.54 644.687,355.147 625.942,336.402 L465.941,176.403 C447.197,157.658 416.806,157.657 398.059,176.403 L142.059,432.402 C123.314,451.147 123.314,481.54 142.059,500.285 L238.059,596.284 C247.061,605.286 259.27,610.343 272,610.344 L628,610.344 C634.628,610.344 640,604.971 640,598.344 L640,558.344 C640,551.716 634.628,546.344 628,546.344 L483.884,546.344 L625.942,404.285 z M323.315,341.658 L460.688,479.031 L393.374,546.344 L278.629,546.344 L198.629,466.344 L323.315,341.658 z" fill="#BFBFBF"/>
      <path d="M432.49,130.391 C454.352,130.818 472.555,139.209 488.569,153.775 L648.569,313.775 C670.007,335.439 677.617,367.957 667.515,396.809 C663.919,407.081 658.228,415.566 651.406,423.927 L648.569,426.912 L561.138,514.343 L628,514.343 C652.301,514.344 672,534.043 672,558.344 L672,598.343 C672,622.644 652.301,642.344 628,642.344 L272,642.343 C250.783,642.343 230.435,633.915 215.431,618.912 L119.431,522.912 C88.189,491.67 88.189,441.017 119.431,409.775 L375.432,153.774 C391.053,138.566 406.779,132.482 428.163,130.435 L432.49,130.391 z M429.698,162.398 C417.609,163.012 406.769,168.122 398.059,176.402 L142.059,432.402 C123.314,451.147 123.314,481.54 142.059,500.285 L238.059,596.284 C247.061,605.286 259.27,610.343 272,610.344 L628,610.344 C634.628,610.344 640,604.971 640,598.344 L640,558.344 C640,551.716 634.628,546.344 628,546.344 L483.884,546.344 L625.942,404.284 C644.687,385.54 644.687,355.147 625.942,336.402 L465.941,176.402 C455.594,166.239 443.965,162.399 429.698,162.398 z M323.315,341.658 L460.688,479.03 L393.374,546.344 L278.629,546.344 L198.628,466.344 L323.315,341.658 z M323.315,386.912 L243.883,466.344 L291.883,514.343 L380.119,514.343 L415.432,479.03 L323.315,386.912 z" fill="#000000"/>
    </g>
  </g>
</svg>
