<?xml version="1.0" encoding="UTF-8"?>
<!DOCTYPE svg PUBLIC "-//W3C//DTD SVG 1.1//EN" "http://www.w3.org/Graphics/SVG/1.1/DTD/svg11.dtd">
<svg version="1.1" xmlns="http://www.w3.org/2000/svg" xmlns:xlink="http://www.w3.org/1999/xlink" x="0" y="0" width="768" height="768" viewBox="0, 0, 768, 768">
  <g id="Background">
    <rect x="0" y="0" width="768" height="768" fill="#000000" fill-opacity="0"/>
  </g>
  <g id="レイヤー_1">
    <g>
      <path d="M608,472 L608,584 C608.016,590.37 605.493,596.484 600.988,600.988 C596.484,605.493 590.37,608.016 584,608 L472,608 C450.61,608 439.91,582.1 455,567 L491.2,530.8 L384,423.6 L276.77,530.9 L313,567 C328.09,582.1 317.39,608 296,608 L184,608 C177.63,608.016 171.516,605.493 167.012,600.988 C162.507,596.484 159.984,590.37 160,584 L160,472 C160,450.6 185.89,439.9 201,455 L237.19,491.2 L344.46,384 L237.18,276.7 L201,313 C185.9,328.1 160,317.4 160,296 L160,184 C159.984,177.63 162.507,171.516 167.012,167.012 C171.516,162.507 177.63,159.984 184,160 L296,160 C317.39,160 328.09,185.9 313,201 L276.8,237.2 L384,344.4 L491.23,237.1 L455,201 C439.91,185.9 450.61,160 472,160 L584,160 C590.37,159.984 596.484,162.507 600.988,167.012 C605.493,171.516 608.016,177.63 608,184 L608,296 C608,317.4 582.11,328.1 567,313 L530.81,276.8 L423.54,384 L530.82,491.3 L567,455.1 C582.1,439.9 608,450.6 608,472 z" fill="#FFFFFF"/>
      <path d="M296,128 C345.888,128 370.878,188.354 335.627,223.627 L322.055,237.2 L383.993,299.138 L445.942,237.148 L432.365,223.62 C397.122,188.354 422.112,128 472,128 L583.919,128 C598.805,127.963 613.09,133.859 623.616,144.384 C634.141,154.91 640.037,169.195 640,184 L640,296 C640,345.898 579.656,370.887 544.369,335.624 L530.799,322.051 L468.8,384.009 L530.816,446.037 L544.298,432.547 C579.524,397.088 640,422.037 640,472 L640,583.919 C640.037,598.805 634.141,613.09 623.616,623.616 C613.09,634.141 598.805,640.037 584,640 L472,640 C422.112,640 397.122,579.646 432.372,544.372 L445.945,530.8 L384.007,468.862 L322.058,530.852 L335.635,544.38 C370.878,579.646 345.888,640 296,640 L184.08,640 C169.195,640.037 154.91,634.141 144.384,623.616 C133.859,613.09 127.963,598.805 128,584 L128,472 C128,422.102 188.344,397.113 223.63,432.376 L237.2,445.949 L299.2,383.991 L237.215,321.994 L223.627,335.627 C188.362,370.893 128,345.9 128,296 L128,184.08 C127.963,169.195 133.859,154.91 144.384,144.384 C154.91,133.859 169.195,127.963 184,128 L296,128 z M296,160 L184,160 C177.63,159.984 171.516,162.507 167.012,167.012 C162.507,171.516 159.984,177.63 160,184 L160,296 C160,317.4 185.9,328.1 201,313 L237.18,276.7 L344.46,384 L237.19,491.2 L201,455 C185.89,439.9 160,450.6 160,472 L160,584 C159.984,590.37 162.507,596.484 167.012,600.988 C171.516,605.493 177.63,608.016 184,608 L296,608 C317.39,608 328.09,582.1 313,567 L276.77,530.9 L384,423.6 L491.2,530.8 L455,567 C439.91,582.1 450.61,608 472,608 L584,608 C590.37,608.016 596.484,605.493 600.988,600.988 C605.493,596.484 608.016,590.37 608,584 L608,472 C608,450.6 582.1,439.9 567,455.1 L530.82,491.3 L423.54,384 L530.81,276.8 L567,313 C582.11,328.1 608,317.4 608,296 L608,184 C608.016,177.63 605.493,171.516 600.988,167.012 C596.484,162.507 590.37,159.984 584,160 L472,160 C450.61,160 439.91,185.9 455,201 L491.23,237.1 L384,344.4 L276.8,237.2 L313,201 C328.09,185.9 317.39,160 296,160 z" fill="#000000"/>
    </g>
  </g>
</svg>
