<?xml version="1.0" encoding="UTF-8"?>
<!DOCTYPE svg PUBLIC "-//W3C//DTD SVG 1.1//EN" "http://www.w3.org/Graphics/SVG/1.1/DTD/svg11.dtd">
<svg version="1.1" xmlns="http://www.w3.org/2000/svg" xmlns:xlink="http://www.w3.org/1999/xlink" x="0" y="0" width="768" height="768" viewBox="0, 0, 768, 768">
  <g id="Background">
    <rect x="0" y="0" width="768" height="768" fill="#000000" fill-opacity="0"/>
  </g>
  <g id="レイヤー_1">
    <g>
      <path d="M416,264 L416,128 L216,128 C202.7,128 192,138.7 192,152 L192,616 C192,629.3 202.7,640 216,640 L552,640 C565.3,640 576,629.3 576,616 L576,288 L440,288 C426.8,288 416,277.2 416,264 z M576,249.9 L576,256 L448,256 L448,128 L454.1,128 C460.5,128 466.6,130.5 471.1,135 L569,233 C573.5,237.5 576,243.6 576,249.9 z" fill="#FFFFFF"/>
      <path d="M454.1,96 C468.969,96 483.213,101.858 493.739,112.384 L591.627,210.372 C602.12,220.865 608,235.101 608,249.9 L608,616 C608,646.973 582.973,672 552,672 L216,672 C185.027,672 160,646.973 160,616 L160,152 C160,121.027 185.027,96 216,96 L454.1,96 z M416,128 L216,128 C202.7,128 192,138.7 192,152 L192,616 C192,629.3 202.7,640 216,640 L552,640 C565.3,640 576,629.3 576,616 L576,288 L440,288 C426.8,288 416,277.2 416,264 L416,128 z M454.1,128 L448,128 L448,256 L576,256 L576,249.9 C576,243.6 573.5,237.5 569,233 L471.1,135 C466.6,130.5 460.5,128 454.1,128 z" fill="#000000"/>
    </g>
  </g>
</svg>
