<?xml version="1.0" encoding="UTF-8"?>
<!DOCTYPE svg PUBLIC "-//W3C//DTD SVG 1.1//EN" "http://www.w3.org/Graphics/SVG/1.1/DTD/svg11.dtd">
<svg version="1.1" xmlns="http://www.w3.org/2000/svg" xmlns:xlink="http://www.w3.org/1999/xlink" x="0" y="0" width="768" height="768" viewBox="0, 0, 768, 768">
  <g id="Background">
    <rect x="0" y="0" width="768" height="768" fill="#000000" fill-opacity="0"/>
  </g>
  <g id="レイヤー_1">
    <g>
      <path d="M592,256 L400,256 L336,192 L176,192 C149.49,192 128,213.49 128,240 L128,528 C128,554.51 149.49,576 176,576 L592,576 C618.51,576 640,554.51 640,528 L640,304 C640,277.49 618.51,256 592,256 z" fill="#FFFFFF"/>
      <path d="M349.255,160 L358.627,169.372 L413.255,224 L592,224 C636.183,224 672,259.817 672,304 L672,528 C672,572.183 636.183,608 592,608 L176,608 C131.817,608 96,572.183 96,528 L96,240 C96,195.817 131.817,160 176,160 L349.255,160 z M336,192 L176,192 C149.49,192 128,213.49 128,240 L128,528 C128,554.51 149.49,576 176,576 L592,576 C618.51,576 640,554.51 640,528 L640,304 C640,277.49 618.51,256 592,256 L400,256 L336,192 z" fill="#000000"/>
    </g>
  </g>
</svg>
