<?xml version="1.0" encoding="UTF-8"?>
<!DOCTYPE svg PUBLIC "-//W3C//DTD SVG 1.1//EN" "http://www.w3.org/Graphics/SVG/1.1/DTD/svg11.dtd">
<svg version="1.1" xmlns="http://www.w3.org/2000/svg" xmlns:xlink="http://www.w3.org/1999/xlink" x="0" y="0" width="768" height="768" viewBox="0, 0, 768, 768">
  <g id="Background">
    <rect x="0" y="0" width="768" height="768" fill="#000000" fill-opacity="0"/>
  </g>
  <g id="レイヤー_2" display="none">
    <g>
      <path d="M583.5,128 C499.5,128.3 432,197.5 432,281.5 L432,352 L208,352 C181.5,352 160,373.5 160,400 L160,592 C160,618.5 181.5,640 208,640 L560,640 C586.5,640 608,618.5 608,592 L608,400 C608,373.5 586.5,352 560,352 L512,352 L512,280.9 C512,241.3 543.7,208.4 583.3,208 C623.3,207.6 656,240.1 656,280 L656,360 C656,373.3 666.7,384 680,384 L712,384 C725.3,384 736,373.3 736,360 L736,280 C736,196 667.5,127.7 583.5,128 z" fill="#FFFFFF"/>
      <path d="M583.386,96.001 C685.098,95.637 768,178.277 768,280 L768,360 C768,390.974 742.973,416 712,416 L680,416 C664.822,416.016 650.644,409.783 639.978,399.117 L640,400 L640,592 C640,636.174 604.173,672 560,672 L208,672 C163.827,672 128,636.174 128,592 L128,400 C128,355.827 163.827,320 208,320 L400,320 L400,281.5 C400,179.686 481.938,96.363 583.386,96.001 z M583.5,128 C499.5,128.3 432,197.5 432,281.5 L432,352 L208,352 C181.5,352 160,373.5 160,400 L160,592 C160,618.5 181.5,640 208,640 L560,640 C586.5,640 608,618.5 608,592 L608,400 C608,373.5 586.5,352 560,352 L512,352 L512,280.9 C512,241.3 543.7,208.4 583.3,208 C623.3,207.6 656,240.1 656,280 L656,360 C656,373.3 666.7,384 680,384 L712,384 C725.3,384 736,373.3 736,360 L736,280 C736,196 667.5,127.7 583.5,128 z M583.623,239.999 C561.856,240.219 544,258.56 544,280.9 L544,320 L560,320 C587.371,320.564 606.807,331.181 624,352.013 L624,280 C624,257.849 605.773,239.777 583.623,239.999 z" fill="#000000"/>
    </g>
  </g>
  <g id="レイヤー_1">
    <g id="lock-solid">
      <path d="M560,352 L536,352 L536,280 C536,196.2 467.8,128 384,128 C300.2,128 232,196.2 232,280 L232,352 L208,352 C181.5,352 160,373.5 160,400 L160,592 C160,618.5 181.5,640 208,640 L560,640 C586.5,640 608,618.5 608,592 L608,400 C608,373.5 586.5,352 560,352 z M456,352 L312,352 L312,280 C312,240.3 344.3,208 384,208 C423.7,208 456,240.3 456,280 L456,352 z" fill="#404040"/>
      <path d="M384,96 C485.473,96 568,178.527 568,280 L568,320.498 C609.576,324.458 638.962,359.017 640,400 L640,592 C640,636.173 604.173,672 560,672 L208,672 C163.827,672 128,636.173 128,592 L128,400 C128.146,359.301 159.528,324.602 200,320.498 L200,280 C200,178.527 282.527,96 384,96 z M384,128 C300.2,128 232,196.2 232,280 L232,352 L208,352 C181.5,352 160,373.5 160,400 L160,592 C160,618.5 181.5,640 208,640 L560,640 C586.5,640 608,618.5 608,592 L608,400 C608,373.5 586.5,352 560,352 L536,352 L536,280 C536,196.2 467.8,128 384,128 z M384,208 C423.7,208 456,240.3 456,280 L456,352 L312,352 L312,280 C312,240.3 344.3,208 384,208 z M384,240 C361.973,240 344,257.973 344,280 L344,320 L424,320 L424,280 C424,257.973 406.027,240 384,240 z" fill="#000000"/>
    </g>
  </g>
</svg>
