<?xml version="1.0" encoding="UTF-8"?>
<!DOCTYPE svg PUBLIC "-//W3C//DTD SVG 1.1//EN" "http://www.w3.org/Graphics/SVG/1.1/DTD/svg11.dtd">
<svg version="1.1" xmlns="http://www.w3.org/2000/svg" xmlns:xlink="http://www.w3.org/1999/xlink" x="0" y="0" width="768" height="768" viewBox="0, 0, 768, 768">
  <g id="Background">
    <rect x="0" y="0" width="768" height="768" fill="#000000" fill-opacity="0"/>
  </g>
  <g id="レイヤー_1">
    <g>
      <path d="M631.85,569.5 L532.15,469.8 C527.65,465.3 521.55,462.8 515.15,462.8 L498.85,462.8 C526.45,427.5 542.85,383.1 542.85,334.8 C542.85,219.9 449.75,126.8 334.85,126.8 C219.95,126.8 126.85,219.9 126.85,334.8 C126.85,449.7 219.95,542.8 334.85,542.8 C383.15,542.8 427.55,526.4 462.85,498.8 L462.85,515.1 C462.85,521.5 465.35,527.6 469.85,532.1 L569.55,631.8 C578.95,641.2 594.15,641.2 603.45,631.8 L631.75,603.5 C641.15,594.1 641.15,578.9 631.85,569.5 z M334.85,462.8 C264.15,462.8 206.85,405.6 206.85,334.8 C206.85,264.1 264.05,206.8 334.85,206.8 C405.55,206.8 462.85,264 462.85,334.8 C462.85,405.5 405.65,462.8 334.85,462.8 z" fill="#FFFFFF"/>
      <path d="M334.85,94.8 C467.423,94.8 574.85,202.227 574.85,334.8 C575.045,372.23 565.849,408.991 549.378,442.484 C553.48,445.843 551.706,444.251 554.777,447.172 L654.477,546.872 L654.598,546.994 C676.29,568.919 676.218,604.287 654.377,626.127 L626.077,654.427 L626.075,654.425 C603.352,676.527 569.726,676.105 546.922,654.427 L447.223,554.727 C444.301,551.656 445.893,553.43 442.534,549.328 C409.208,566.382 372.151,574.412 334.85,574.8 C202.277,574.8 94.85,467.373 94.85,334.8 C94.85,202.227 202.277,94.8 334.85,94.8 z M334.85,126.8 C219.95,126.8 126.85,219.9 126.85,334.8 C126.85,449.7 219.95,542.8 334.85,542.8 C383.15,542.8 427.55,526.4 462.85,498.8 L462.85,515.1 C462.85,521.5 465.35,527.6 469.85,532.1 L569.55,631.8 C578.95,641.2 594.15,641.2 603.45,631.8 L631.75,603.5 C641.15,594.1 641.15,578.9 631.85,569.5 L532.15,469.8 C527.65,465.3 521.55,462.8 515.15,462.8 L498.85,462.8 C526.45,427.5 542.85,383.1 542.85,334.8 C542.85,219.9 449.75,126.8 334.85,126.8 z M334.85,206.8 C405.55,206.8 462.85,264 462.85,334.8 C462.85,405.5 405.65,462.8 334.85,462.8 C264.15,462.8 206.85,405.6 206.85,334.8 C206.85,264.1 264.05,206.8 334.85,206.8 z M334.85,238.8 C281.762,238.8 238.85,281.735 238.85,334.8 C238.85,387.888 281.785,430.8 334.85,430.8 C387.938,430.8 430.85,387.865 430.85,334.8 C430.85,281.712 387.915,238.8 334.85,238.8 z" fill="#000000"/>
    </g>
  </g>
</svg>
