<?xml version="1.0" encoding="UTF-8"?>
<!DOCTYPE svg PUBLIC "-//W3C//DTD SVG 1.1//EN" "http://www.w3.org/Graphics/SVG/1.1/DTD/svg11.dtd">
<svg version="1.1" xmlns="http://www.w3.org/2000/svg" xmlns:xlink="http://www.w3.org/1999/xlink" x="0" y="0" width="768" height="768" viewBox="0, 0, 768, 768">
  <g id="Background">
    <rect x="0" y="0" width="768" height="768" fill="#000000" fill-opacity="0"/>
  </g>
  <g id="レイヤー_1">
    <g>
      <path d="M632.85,569.5 L533.15,469.8 C528.65,465.3 522.55,462.8 516.15,462.8 L499.85,462.8 C527.45,427.5 543.85,383.1 543.85,334.8 C543.85,219.9 450.75,126.8 335.85,126.8 C220.95,126.8 127.85,219.9 127.85,334.8 C127.85,449.7 220.95,542.8 335.85,542.8 C384.15,542.8 428.55,526.4 463.85,498.8 L463.85,515.1 C463.85,521.5 466.35,527.6 470.85,532.1 L570.55,631.8 C579.95,641.2 595.15,641.2 604.45,631.8 L632.75,603.5 C642.15,594.1 642.15,578.9 632.85,569.5 z M335.85,462.8 C265.15,462.8 207.85,405.6 207.85,334.8 C207.85,264.1 265.05,206.8 335.85,206.8 C406.55,206.8 463.85,264 463.85,334.8 C463.85,405.5 406.65,462.8 335.85,462.8 z" fill="#BFBFBF"/>
      <path d="M335.85,94.8 C468.423,94.8 575.85,202.227 575.85,334.8 C576.045,372.23 566.849,408.991 550.378,442.484 C554.48,445.843 552.706,444.251 555.777,447.172 L655.477,546.872 L655.598,546.994 C677.29,568.919 677.218,604.287 655.377,626.127 L627.077,654.427 L627.075,654.425 C604.352,676.527 570.726,676.105 547.922,654.427 L448.223,554.727 C445.301,551.656 446.893,553.43 443.534,549.328 C410.208,566.382 373.151,574.412 335.85,574.8 C203.277,574.8 95.85,467.373 95.85,334.8 C95.85,202.227 203.277,94.8 335.85,94.8 z M335.85,126.8 C220.95,126.8 127.85,219.9 127.85,334.8 C127.85,449.7 220.95,542.8 335.85,542.8 C384.15,542.8 428.55,526.4 463.85,498.8 L463.85,515.1 C463.85,521.5 466.35,527.6 470.85,532.1 L570.55,631.8 C579.95,641.2 595.15,641.2 604.45,631.8 L632.75,603.5 C642.15,594.1 642.15,578.9 632.85,569.5 L533.15,469.8 C528.65,465.3 522.55,462.8 516.15,462.8 L499.85,462.8 C527.45,427.5 543.85,383.1 543.85,334.8 C543.85,219.9 450.75,126.8 335.85,126.8 z M335.85,206.8 C406.55,206.8 463.85,264 463.85,334.8 C463.85,405.5 406.65,462.8 335.85,462.8 C265.15,462.8 207.85,405.6 207.85,334.8 C207.85,264.1 265.05,206.8 335.85,206.8 z M335.85,238.8 C282.762,238.8 239.85,281.735 239.85,334.8 C239.85,387.888 282.785,430.8 335.85,430.8 C388.938,430.8 431.85,387.865 431.85,334.8 C431.85,281.712 388.915,238.8 335.85,238.8 z" fill="#000000"/>
    </g>
  </g>
</svg>
